<svg width="349" height="121" viewBox="0 0 349 121" fill="none" xmlns="http://www.w3.org/2000/svg">
<path fill-rule="evenodd" clip-rule="evenodd" d="M0.369141 40.5944H1.44169H40.0534V2.01261V0.940063H41.126H79.7377H80.8102V2.01261V40.5944H119.355H120.427H159.039H160.112V41.6669V80.1833V80.2786V81.2558V81.3512V119.868V120.94H159.039H120.427H119.355V119.868V81.3512H80.8102H80.7432H79.7377H79.6706H41.126H40.0534H1.44169H0.369141V80.2786V41.6669V40.5944ZM80.8102 41.6669H80.7432V41.6969V42.7394V79.2061V80.2786H80.8102H81.8157H118.282H119.355V80.1833V79.2061V42.7394V41.6669H118.282H81.8157H80.8102ZM120.427 80.1833V80.2786H121.5H157.967H159.039V80.1833V79.2061V42.7394V41.6669H157.967H121.5H120.427V42.7394V79.2061V80.1833ZM41.126 40.5944V40.6243H42.1985H78.6651H79.6706H79.7377V40.5944V39.5518V3.08516V2.01261H78.6651H42.1985H41.126V3.08516V39.5518V40.5944ZM41.126 41.6969V42.7394V79.2061V80.2786H42.1985H78.6651H79.6706H79.7377V79.2061V42.7394V41.6969V41.6669H79.6706H78.6651H42.1985H41.126V41.6969ZM120.427 81.3512V82.3283V118.795V119.868H121.5H157.967H159.039V118.795V82.3283V81.3512V81.2558H157.967H121.5H120.427V81.3512ZM2.51424 41.6669H1.44169V42.7394V79.2061V80.2786H2.51424H38.9809H40.0534V79.2061V42.7394V41.6969V41.6669H38.9809H2.51424ZM53.9279 29.6307V13.1135H61.2191C62.3517 13.1135 63.3113 13.2787 64.0978 13.609C64.8844 13.9236 65.4743 14.3877 65.8675 15.0012C66.2765 15.5989 66.481 16.3225 66.481 17.172C66.481 18.1158 66.2451 18.9102 65.7731 19.5552C65.446 20.0177 65.0097 20.371 64.4642 20.6151C64.8962 20.7708 65.2853 20.9759 65.6316 21.2305C66.1821 21.6238 66.6069 22.1114 66.9057 22.6935C67.2046 23.2598 67.3541 23.9047 67.3541 24.6284C67.3541 25.4621 67.2125 26.1936 66.9293 26.8228C66.6462 27.4363 66.2372 27.9554 65.7023 28.3801C65.1675 28.8049 64.5383 29.1195 63.8147 29.324C63.1068 29.5285 62.3202 29.6307 61.4551 29.6307H53.9279ZM57.7033 26.2801H61.3135C61.7539 26.2801 62.1236 26.2093 62.4225 26.0677C62.7371 25.9261 62.9809 25.7216 63.154 25.4542C63.327 25.1711 63.4135 24.8329 63.4135 24.4396C63.4135 24.0778 63.3191 23.771 63.1304 23.5193C62.9573 23.2677 62.7056 23.0789 62.3753 22.953C62.045 22.8115 61.6517 22.7407 61.1955 22.7407H57.7033V26.2801ZM57.7033 19.744H60.6528C61.0618 19.744 61.4079 19.681 61.691 19.5552C61.9899 19.4136 62.2101 19.2249 62.3517 18.9889C62.509 18.7372 62.5877 18.4383 62.5877 18.0922C62.5877 17.5889 62.4146 17.1956 62.0686 16.9124C61.7225 16.6136 61.2034 16.4641 60.5112 16.4641H57.7033V19.744ZM18.6797 53.0359L12.1436 69.5531H16.1077L17.2867 66.3913H23.3322L24.5079 69.5531H28.5665L22.0775 53.0359H18.6797ZM22.2092 63.371L21.3933 61.1765C21.2674 60.8462 21.1416 60.4922 21.0157 60.1147C20.8899 59.7372 20.764 59.3518 20.6382 58.9585C20.5315 58.6116 20.4247 58.2761 20.318 57.9519C20.2186 58.2874 20.1129 58.6229 20.0011 58.9585C19.891 59.3203 19.7651 59.69 19.6235 60.0675C19.482 60.4293 19.3483 60.8069 19.2224 61.2001L18.413 63.371H22.2092ZM133.699 53.0359V69.5531H145.449V66.1317H137.592V62.7811H144.152V59.5248H137.592V56.4573H145.214V53.0359H133.699ZM132.626 92.2896V108.807H139.54C140.751 108.807 141.86 108.61 142.867 108.217C143.874 107.808 144.739 107.242 145.462 106.518C146.202 105.779 146.768 104.906 147.161 103.899C147.555 102.876 147.751 101.76 147.751 100.548C147.751 99.337 147.555 98.228 147.161 97.2212C146.768 96.2144 146.202 95.3414 145.462 94.602C144.739 93.8627 143.874 93.2964 142.867 92.9031C141.86 92.4941 140.751 92.2896 139.54 92.2896H132.626ZM136.637 105.267H139.422C140.082 105.267 140.672 105.157 141.191 104.937C141.711 104.701 142.151 104.379 142.513 103.97C142.89 103.561 143.181 103.065 143.386 102.483C143.59 101.901 143.693 101.256 143.693 100.548C143.693 99.8404 143.59 99.1954 143.386 98.6134C143.181 98.0313 142.89 97.5358 142.513 97.1268C142.151 96.7178 141.711 96.4032 141.191 96.183C140.672 95.947 140.082 95.829 139.422 95.829H136.637V105.267ZM100.982 69.7891C99.7389 69.7891 98.5906 69.5846 97.5366 69.1756C96.4984 68.7509 95.5939 68.161 94.8231 67.4059C94.0523 66.6351 93.4545 65.7306 93.0298 64.6923C92.6208 63.6384 92.4163 62.4822 92.4163 61.2237C92.4163 59.9967 92.6365 58.8641 93.077 57.8259C93.5174 56.7877 94.1231 55.891 94.8939 55.1359C95.6804 54.3651 96.6007 53.7674 97.6546 53.3426C98.7243 52.9179 99.8884 52.7055 101.147 52.7055C101.933 52.7055 102.704 52.8078 103.459 53.0123C104.214 53.2168 104.914 53.5235 105.559 53.9325C106.22 54.3258 106.786 54.7977 107.258 55.3483L104.804 58.1562C104.474 57.8102 104.12 57.5113 103.742 57.2596C103.381 56.9922 102.979 56.7877 102.539 56.6461C102.099 56.5045 101.627 56.4337 101.123 56.4337C100.494 56.4337 99.8962 56.5517 99.3299 56.7877C98.7794 57.0079 98.2917 57.3304 97.867 57.7551C97.458 58.1641 97.1355 58.6675 96.8995 59.2653C96.6636 59.863 96.5456 60.5316 96.5456 61.2709C96.5456 61.9945 96.6636 62.6552 96.8995 63.253C97.1355 63.835 97.4658 64.3384 97.8906 64.7631C98.3153 65.1879 98.8266 65.5103 99.4243 65.7306C100.038 65.9508 100.714 66.0609 101.454 66.0609C101.957 66.0609 102.437 65.9901 102.893 65.8485C103.349 65.707 103.766 65.5182 104.144 65.2822C104.537 65.0306 104.883 64.7474 105.182 64.4328L107.117 67.5003C106.723 67.9407 106.196 68.334 105.536 68.6801C104.891 69.0262 104.167 69.3014 103.365 69.5059C102.578 69.6947 101.784 69.7891 100.982 69.7891ZM266.405 75.0521C268.281 75.7801 270.325 76.1441 272.537 76.1441C273.965 76.1441 275.379 75.9761 276.779 75.6401C278.207 75.2761 279.495 74.7861 280.643 74.1701C281.819 73.5541 282.757 72.8541 283.457 72.0701L280.013 66.6101C279.481 67.1701 278.865 67.6741 278.165 68.1221C277.493 68.5421 276.751 68.8781 275.939 69.1301C275.127 69.3821 274.273 69.5081 273.377 69.5081C272.061 69.5081 270.857 69.3121 269.765 68.9201C268.701 68.5281 267.791 67.9541 267.035 67.1981C266.279 66.4421 265.691 65.5461 265.271 64.5101C264.851 63.4461 264.641 62.2701 264.641 60.9821C264.641 59.6661 264.851 58.4761 265.271 57.4121C265.691 56.3481 266.265 55.4521 266.993 54.7241C267.749 53.9681 268.617 53.3941 269.597 53.0021C270.605 52.5821 271.669 52.3721 272.789 52.3721C273.685 52.3721 274.525 52.4981 275.309 52.7501C276.093 53.0021 276.807 53.3661 277.451 53.8421C278.123 54.2901 278.753 54.8221 279.341 55.4381L283.709 50.4401C282.869 49.4601 281.861 48.6201 280.685 47.9201C279.537 47.1921 278.291 46.6461 276.947 46.2821C275.603 45.9181 274.231 45.7361 272.831 45.7361C270.591 45.7361 268.519 46.1141 266.615 46.8701C264.739 47.6261 263.101 48.6901 261.701 50.0621C260.329 51.4061 259.251 53.0021 258.467 54.8501C257.683 56.6981 257.291 58.7141 257.291 60.8981C257.291 63.1381 257.655 65.1961 258.383 67.0721C259.139 68.9201 260.203 70.5301 261.575 71.9021C262.947 73.2461 264.557 74.2961 266.405 75.0521ZM190.111 75.7241L201.745 46.3241H207.793L219.343 75.7241H212.119L210.027 70.0961H199.266L197.167 75.7241H190.111ZM206.575 60.8141L208.028 64.7201H201.271L202.711 60.8561C202.935 60.1561 203.173 59.4841 203.425 58.8401C203.677 58.1681 203.901 57.5101 204.097 56.8661C204.296 56.2688 204.484 55.6715 204.661 55.0743C204.851 55.6514 205.041 56.2487 205.231 56.8661C205.455 57.5661 205.679 58.2521 205.903 58.9241C206.127 59.5961 206.351 60.2261 206.575 60.8141ZM226.371 75.7241V46.3241H239.349C241.365 46.3241 243.073 46.6181 244.473 47.2061C245.873 47.7661 246.923 48.5921 247.623 49.6841C248.351 50.7481 248.715 52.0361 248.715 53.5481C248.715 55.2281 248.295 56.6421 247.455 57.7901C246.873 58.6133 246.097 59.2421 245.126 59.6766C245.894 59.9537 246.587 60.3189 247.203 60.7721C248.183 61.4721 248.939 62.3401 249.471 63.3761C250.003 64.3841 250.269 65.5321 250.269 66.8201C250.269 68.3041 250.017 69.6061 249.513 70.7261C249.009 71.8181 248.281 72.7421 247.329 73.4981C246.377 74.2541 245.257 74.8141 243.969 75.1781C242.709 75.5421 241.309 75.7241 239.769 75.7241H226.371ZM233.091 69.7601H239.517C240.301 69.7601 240.959 69.6341 241.491 69.3821C242.051 69.1301 242.485 68.7661 242.793 68.2901C243.101 67.7861 243.255 67.1841 243.255 66.4841C243.255 65.8401 243.087 65.2941 242.751 64.8461C242.443 64.3981 241.995 64.0621 241.407 63.8381C240.819 63.5861 240.119 63.4601 239.307 63.4601H233.091V69.7601ZM233.091 58.1261H238.341C239.069 58.1261 239.685 58.0141 240.189 57.7901C240.721 57.5381 241.113 57.2021 241.365 56.7821C241.645 56.3341 241.785 55.8021 241.785 55.1861C241.785 54.2901 241.477 53.5901 240.861 53.0861C240.245 52.5541 239.321 52.2881 238.089 52.2881H233.091V58.1261ZM291.703 75.7241V46.3241H304.009C306.165 46.3241 308.139 46.6881 309.931 47.4161C311.723 48.1161 313.263 49.1241 314.551 50.4401C315.867 51.7561 316.875 53.3101 317.575 55.1021C318.275 56.8941 318.625 58.8681 318.625 61.0241C318.625 63.1801 318.275 65.1681 317.575 66.9881C316.875 68.7801 315.867 70.3341 314.551 71.6501C313.263 72.9381 311.723 73.9461 309.931 74.6741C308.139 75.3741 306.165 75.7241 304.009 75.7241H291.703ZM303.799 69.4241H298.843V52.6241H303.799C304.975 52.6241 306.025 52.8341 306.949 53.2541C307.873 53.6461 308.657 54.2061 309.301 54.9341C309.973 55.6621 310.491 56.5441 310.855 57.5801C311.219 58.6161 311.401 59.7641 311.401 61.0241C311.401 62.2841 311.219 63.4321 310.855 64.4681C310.491 65.5041 309.973 66.3861 309.301 67.1141C308.657 67.8421 307.873 68.4161 306.949 68.8361C306.025 69.2281 304.975 69.4241 303.799 69.4241ZM348.002 46.3241H327.506V75.7241H348.422V69.6341H334.436V63.6701H346.112V57.8741H334.436V52.4141H348.002V46.3241Z" fill="black"/>
</svg>
